<?xml version="1.0" encoding="UTF-8"?>
<svg xmlns="http://www.w3.org/2000/svg" xmlns:xlink="http://www.w3.org/1999/xlink" width="365pt" height="250.37pt" viewBox="0 0 365 250.37" version="1.1">
<defs>
<clipPath id="clip1">
  <path d="M 0 209 L 38 209 L 38 250.371094 L 0 250.371094 Z M 0 209 "/>
</clipPath>
<clipPath id="clip2">
  <path d="M 38 209 L 78 209 L 78 250.371094 L 38 250.371094 Z M 38 209 "/>
</clipPath>
<clipPath id="clip3">
  <path d="M 290 209 L 330 209 L 330 250.371094 L 290 250.371094 Z M 290 209 "/>
</clipPath>
</defs>
<g id="surface1">
<path style=" stroke:none;fill-rule:nonzero;fill:rgb(5.099487%,61.199951%,84.298706%);fill-opacity:1;" d="M 57.207031 176.195313 L 65.910156 176.195313 C 68.953125 176.195313 70.695313 174.457031 70.695313 171.628906 C 70.695313 168.582031 68.300781 167.277344 65.472656 167.277344 L 57.207031 167.277344 Z M 46.984375 159.011719 L 67.214844 159.011719 C 74.175781 159.011719 81.136719 162.273438 81.136719 170.105469 C 81.136719 174.457031 79.175781 178.371094 74.828125 180.109375 L 74.828125 180.328125 C 78.960938 181.417969 80.265625 185.984375 80.699219 189.898438 C 80.917969 191.640625 80.917969 197.296875 82.441406 198.816406 L 72 198.816406 C 71.128906 197.511719 70.910156 193.597656 70.910156 192.511719 C 70.695313 188.59375 70.042969 184.460938 65.039063 184.460938 L 57.207031 184.460938 L 57.207031 198.816406 L 46.984375 198.816406 L 46.984375 159.011719 "/>
<path style=" stroke:none;fill-rule:nonzero;fill:rgb(5.099487%,61.199951%,84.298706%);fill-opacity:1;" d="M 101.800781 190.769531 C 108.542969 190.769531 110.9375 184.898438 110.9375 179.023438 C 110.9375 173.152344 108.324219 167.277344 101.800781 167.277344 C 95.054688 167.277344 92.664063 173.152344 92.664063 179.023438 C 92.445313 184.679688 95.054688 190.769531 101.800781 190.769531 Z M 101.800781 158.140625 C 114.199219 158.140625 121.378906 167.277344 121.378906 178.804688 C 121.378906 190.335938 114.414063 199.472656 101.800781 199.472656 C 89.402344 199.472656 82.222656 190.335938 82.222656 178.804688 C 82.222656 167.496094 89.183594 158.140625 101.800781 158.140625 "/>
<path style=" stroke:none;fill-rule:nonzero;fill:rgb(5.099487%,61.199951%,84.298706%);fill-opacity:1;" d="M 133.773438 190.550781 L 142.039063 190.550781 C 145.304688 190.550781 147.695313 189.464844 147.695313 186.203125 C 147.695313 182.722656 145.304688 181.632813 142.039063 181.632813 L 133.773438 181.632813 Z M 133.773438 174.671875 L 141.824219 174.671875 C 143.5625 174.671875 145.957031 173.804688 145.957031 170.976563 C 145.957031 168.148438 144 167.058594 141.824219 167.058594 L 133.773438 167.058594 Z M 123.550781 159.011719 L 142.039063 159.011719 C 148.785156 158.792969 156.398438 160.753906 156.398438 169.019531 C 156.398438 172.5 154.222656 175.542969 151.175781 177.066406 C 155.308594 178.371094 157.921875 181.851563 157.921875 186.417969 C 157.921875 195.773438 150.960938 198.816406 142.476563 198.816406 L 123.335938 198.816406 L 123.335938 159.011719 L 123.550781 159.011719 "/>
<path style=" stroke:none;fill-rule:nonzero;fill:rgb(5.099487%,61.199951%,84.298706%);fill-opacity:1;" d="M 178.367188 190.769531 C 185.109375 190.769531 187.503906 184.898438 187.503906 179.023438 C 187.503906 173.152344 184.894531 167.277344 178.367188 167.277344 C 171.625 167.277344 169.230469 173.152344 169.230469 179.023438 C 169.015625 184.679688 171.625 190.769531 178.367188 190.769531 Z M 178.367188 158.140625 C 190.765625 158.140625 197.945313 167.277344 197.945313 178.804688 C 197.945313 190.335938 190.984375 199.472656 178.367188 199.472656 C 165.96875 199.472656 158.789063 190.335938 158.789063 178.804688 C 158.789063 167.496094 165.75 158.140625 178.367188 158.140625 "/>
<path style=" stroke:none;fill-rule:nonzero;fill:rgb(5.099487%,61.199951%,84.298706%);fill-opacity:1;" d="M 231.660156 167.929688 L 219.914063 167.929688 L 219.914063 198.601563 L 209.691406 198.601563 L 209.691406 167.929688 L 197.945313 167.929688 L 197.945313 159.011719 L 231.878906 159.011719 L 231.878906 167.929688 L 231.660156 167.929688 "/>
<path style=" stroke:none;fill-rule:nonzero;fill:rgb(5.099487%,61.199951%,84.298706%);fill-opacity:1;" d="M 233.835938 159.445313 L 244.058594 159.445313 L 244.058594 199.035156 L 233.835938 199.035156 L 233.835938 159.445313 "/>
<path style=" stroke:none;fill-rule:nonzero;fill:rgb(5.099487%,61.199951%,84.298706%);fill-opacity:1;" d="M 273.207031 173.152344 C 272.554688 169.234375 269.507813 167.058594 265.15625 167.058594 C 258.414063 167.058594 256.023438 172.933594 256.023438 178.804688 C 256.023438 184.679688 258.632813 190.550781 265.15625 190.550781 C 269.941406 190.550781 272.769531 187.722656 273.207031 183.15625 L 283.429688 183.15625 C 282.777344 193.378906 275.382813 199.472656 265.375 199.472656 C 253.410156 199.472656 245.582031 190.335938 245.582031 178.804688 C 245.582031 167.277344 253.410156 158.140625 265.375 158.140625 C 273.859375 158.140625 283.210938 163.582031 283.429688 173.152344 L 273.207031 173.152344 "/>
<path style=" stroke:none;fill-rule:nonzero;fill:rgb(5.099487%,61.199951%,84.298706%);fill-opacity:1;" d="M 293.871094 185.332031 C 294.089844 189.898438 296.914063 191.421875 301.265625 191.421875 C 304.3125 191.421875 307.574219 190.335938 307.574219 187.289063 C 307.574219 183.808594 301.917969 183.15625 296.261719 181.417969 C 290.609375 179.894531 284.734375 177.285156 284.734375 169.886719 C 284.734375 161.1875 293.4375 157.925781 300.832031 157.925781 C 308.660156 157.925781 316.710938 161.839844 316.710938 170.757813 L 306.488281 170.757813 C 306.703125 167.058594 303.222656 165.972656 300.179688 165.972656 C 298.003906 165.972656 295.175781 166.84375 295.175781 169.453125 C 295.175781 172.5 300.832031 173.152344 306.703125 174.671875 C 312.359375 176.195313 318.234375 179.023438 318.234375 186.203125 C 318.234375 196.207031 309.75 199.472656 301.050781 199.472656 C 291.914063 199.472656 283.863281 195.554688 283.863281 185.332031 L 293.871094 185.332031 "/>
<g clip-path="url(#clip1)" clip-rule="nonzero">
<path style=" stroke:none;fill-rule:nonzero;fill:rgb(5.099487%,61.199951%,84.298706%);fill-opacity:1;" d="M 27.625 224.050781 C 26.972656 220.136719 23.925781 217.960938 19.578125 217.960938 C 12.832031 217.960938 10.441406 223.832031 10.441406 229.707031 C 10.441406 235.578125 13.050781 241.453125 19.578125 241.453125 C 24.363281 241.453125 27.191406 238.625 27.625 234.054688 L 37.847656 234.054688 C 37.195313 244.28125 29.800781 250.371094 19.792969 250.371094 C 7.832031 250.371094 0 241.234375 0 229.707031 C 0 218.175781 7.832031 209.042969 19.792969 209.042969 C 28.277344 209.042969 37.632813 214.480469 37.847656 224.050781 L 27.625 224.050781 "/>
</g>
<g clip-path="url(#clip2)" clip-rule="nonzero">
<path style=" stroke:none;fill-rule:nonzero;fill:rgb(5.099487%,61.199951%,84.298706%);fill-opacity:1;" d="M 58.078125 241.453125 C 64.820313 241.453125 67.214844 235.578125 67.214844 229.707031 C 67.214844 223.832031 64.601563 217.960938 58.078125 217.960938 C 51.335938 217.960938 48.941406 223.832031 48.941406 229.707031 C 48.941406 235.578125 51.335938 241.453125 58.078125 241.453125 Z M 58.078125 209.042969 C 70.476563 209.042969 77.65625 218.175781 77.65625 229.707031 C 77.65625 241.234375 70.695313 250.371094 58.078125 250.371094 C 45.679688 250.371094 38.5 241.234375 38.5 229.707031 C 38.5 218.175781 45.679688 209.042969 58.078125 209.042969 "/>
</g>
<path style=" stroke:none;fill-rule:nonzero;fill:rgb(5.099487%,61.199951%,84.298706%);fill-opacity:1;" d="M 79.832031 209.914063 L 95.054688 209.914063 L 101.800781 236.230469 L 102.015625 236.230469 L 108.761719 209.914063 L 123.988281 209.914063 L 123.988281 249.5 L 114.199219 249.5 L 114.199219 219.484375 L 113.980469 219.484375 L 105.714844 249.5 L 98.101563 249.5 L 89.835938 219.484375 L 89.835938 249.5 L 80.046875 249.5 L 80.046875 209.914063 L 79.832031 209.914063 "/>
<path style=" stroke:none;fill-rule:nonzero;fill:rgb(5.099487%,61.199951%,84.298706%);fill-opacity:1;" d="M 136.167969 228.183594 L 143.128906 228.183594 C 146.390625 228.183594 148.785156 226.878906 148.785156 223.179688 C 148.785156 219.484375 146.390625 217.960938 143.128906 217.960938 L 136.167969 217.960938 Z M 125.726563 209.914063 L 144.652344 209.914063 C 152.046875 209.914063 159.007813 213.390625 159.007813 222.746094 C 159.007813 232.535156 153.351563 236.449219 144.652344 236.449219 L 136.167969 236.449219 L 136.167969 249.71875 L 125.945313 249.71875 L 125.945313 209.914063 L 125.726563 209.914063 "/>
<path style=" stroke:none;fill-rule:nonzero;fill:rgb(5.099487%,61.199951%,84.298706%);fill-opacity:1;" d="M 161.183594 209.914063 L 192.722656 209.914063 L 192.722656 218.175781 L 171.40625 218.175781 L 171.40625 225.136719 L 190.765625 225.136719 L 190.765625 233.1875 L 171.40625 233.1875 L 171.40625 240.800781 L 193.160156 240.800781 L 193.160156 249.71875 L 161.183594 249.71875 L 161.183594 209.914063 "/>
<path style=" stroke:none;fill-rule:nonzero;fill:rgb(5.099487%,61.199951%,84.298706%);fill-opacity:1;" d="M 228.398438 218.613281 L 216.652344 218.613281 L 216.652344 249.28125 L 206.425781 249.28125 L 206.425781 218.613281 L 194.679688 218.613281 L 194.679688 209.695313 L 228.613281 209.695313 L 228.613281 218.613281 L 228.398438 218.613281 "/>
<path style=" stroke:none;fill-rule:nonzero;fill:rgb(5.099487%,61.199951%,84.298706%);fill-opacity:1;" d="M 229.921875 209.914063 L 240.144531 209.914063 L 240.144531 249.5 L 229.921875 249.5 L 229.921875 209.914063 "/>
<path style=" stroke:none;fill-rule:nonzero;fill:rgb(5.099487%,61.199951%,84.298706%);fill-opacity:1;" d="M 275.816406 218.613281 L 264.070313 218.613281 L 264.070313 249.28125 L 253.847656 249.28125 L 253.847656 218.613281 L 242.101563 218.613281 L 242.101563 209.695313 L 276.035156 209.695313 L 276.035156 218.613281 L 275.816406 218.613281 "/>
<path style=" stroke:none;fill-rule:nonzero;fill:rgb(5.099487%,61.199951%,84.298706%);fill-opacity:1;" d="M 277.773438 209.914063 L 287.996094 209.914063 L 287.996094 249.5 L 277.773438 249.5 L 277.773438 209.914063 "/>
<g clip-path="url(#clip3)" clip-rule="nonzero">
<path style=" stroke:none;fill-rule:nonzero;fill:rgb(5.099487%,61.199951%,84.298706%);fill-opacity:1;" d="M 309.96875 241.453125 C 316.710938 241.453125 319.101563 235.578125 319.101563 229.707031 C 319.101563 223.832031 316.492188 217.960938 309.96875 217.960938 C 303.222656 217.960938 300.832031 223.832031 300.832031 229.707031 C 300.832031 235.578125 303.441406 241.453125 309.96875 241.453125 Z M 309.96875 209.042969 C 322.367188 209.042969 329.542969 218.175781 329.542969 229.707031 C 329.542969 241.234375 322.582031 250.371094 309.96875 250.371094 C 297.570313 250.371094 290.390625 241.234375 290.390625 229.707031 C 290.390625 218.175781 297.570313 209.042969 309.96875 209.042969 "/>
</g>
<path style=" stroke:none;fill-rule:nonzero;fill:rgb(5.099487%,61.199951%,84.298706%);fill-opacity:1;" d="M 330.632813 209.914063 L 341.289063 209.914063 L 354.992188 234.273438 L 355.210938 234.273438 L 355.210938 209.914063 L 365 209.914063 L 365 249.5 L 354.339844 249.5 L 340.636719 224.703125 L 340.421875 224.703125 L 340.421875 249.5 L 330.632813 249.5 L 330.632813 209.914063 "/>
<path style=" stroke:none;fill-rule:nonzero;fill:rgb(59.999084%,59.999084%,60.398865%);fill-opacity:1;" d="M 179.238281 31.109375 C 182.066406 31.109375 184.894531 31.328125 187.503906 31.761719 L 193.8125 25.019531 C 189.460938 23.496094 184.457031 22.625 179.019531 22.625 C 170.101563 22.625 161.835938 25.234375 155.746094 29.152344 L 161.398438 34.371094 C 166.839844 32.414063 172.929688 31.109375 179.238281 31.109375 "/>
<path style=" stroke:none;fill-rule:nonzero;fill:rgb(100%,100%,100%);fill-opacity:1;" d="M 179.238281 22.84375 C 184.457031 22.84375 189.460938 23.714844 194.027344 25.234375 L 200.988281 18.058594 C 194.464844 15.449219 187.066406 14.144531 179.238281 14.144531 C 167.492188 14.144531 156.832031 17.40625 148.785156 22.625 L 155.960938 29.585938 C 162.269531 25.453125 170.320313 22.84375 179.238281 22.84375 "/>
<path style=" stroke:none;fill-rule:nonzero;fill:rgb(59.999084%,59.999084%,60.398865%);fill-opacity:1;" d="M 146.175781 51.121094 C 146.828125 48.730469 147.914063 46.554688 149.21875 44.378906 L 146.390625 41.550781 C 145.738281 43.289063 145.519531 45.03125 145.519531 46.988281 C 145.519531 48.292969 145.738281 49.816406 146.175781 51.121094 "/>
<path style=" stroke:none;fill-rule:nonzero;fill:rgb(59.999084%,59.999084%,60.398865%);fill-opacity:1;" d="M 125.511719 66.566406 L 124.203125 72.65625 L 135.949219 67.652344 C 135.296875 66.132813 135.078125 64.171875 134.644531 62.433594 L 125.511719 66.566406 "/>
<path style=" stroke:none;fill-rule:nonzero;fill:rgb(59.999084%,59.999084%,60.398865%);fill-opacity:1;" d="M 117.242188 0.65625 L 100.496094 92.886719 L 108.324219 93.539063 L 125.074219 0.00390625 L 117.242188 0.65625 "/>
<path style=" stroke:none;fill-rule:nonzero;fill:rgb(92.498779%,12.5%,15.299988%);fill-opacity:1;" d="M 174.015625 53.730469 L 174.015625 46.335938 L 161.835938 34.808594 L 156.398438 29.585938 L 149.21875 22.625 L 125.292969 0.00390625 L 108.542969 93.757813 L 143.78125 78.09375 C 140.300781 75.050781 137.691406 71.566406 135.949219 67.871094 L 124.421875 72.875 L 125.511719 66.78125 L 132.90625 27.847656 L 133.558594 24.585938 L 139.648438 30.675781 L 147.480469 38.722656 L 150.960938 42.203125 L 164.882813 54.167969 L 151.394531 60.476563 C 154.875 63.953125 159.007813 67 164.664063 68.742188 L 181.628906 61.128906 L 174.015625 53.730469 "/>
<path style=" stroke:none;fill-rule:nonzero;fill:rgb(59.999084%,59.999084%,60.398865%);fill-opacity:1;" d="M 212.519531 51.121094 C 212.953125 49.816406 212.953125 48.292969 212.953125 46.988281 C 212.953125 42.855469 211.429688 38.941406 208.820313 35.460938 L 204.90625 39.59375 C 208.820313 42.855469 211.429688 46.769531 212.519531 51.121094 "/>
<path style=" stroke:none;fill-rule:nonzero;fill:rgb(59.999084%,59.999084%,60.398865%);fill-opacity:1;" d="M 220.132813 90.492188 L 210.558594 81.355469 C 209.039063 82.445313 207.515625 83.316406 205.773438 84.183594 L 220.132813 97.886719 L 264.503906 51.773438 L 264.503906 44.378906 L 220.132813 90.492188 "/>
<path style=" stroke:none;fill-rule:nonzero;fill:rgb(59.999084%,59.999084%,60.398865%);fill-opacity:1;" d="M 187.722656 59.605469 L 179.890625 51.992188 L 173.800781 46.335938 L 173.800781 53.730469 L 182.28125 61.78125 L 190.332031 69.609375 C 192.289063 69.175781 194.246094 68.523438 196.203125 67.652344 L 187.722656 59.605469 "/>
<path style=" stroke:none;fill-rule:nonzero;fill:rgb(59.999084%,59.999084%,60.398865%);fill-opacity:1;" d="M 218.609375 17.839844 L 212.300781 24.367188 L 205.339844 31.546875 L 200.554688 36.546875 L 191.636719 45.902344 L 195.335938 49.597656 L 204.90625 39.59375 L 209.039063 35.460938 L 216.214844 27.847656 L 218.609375 25.234375 L 242.972656 48.730469 L 246.886719 44.8125 L 218.609375 17.839844 "/>
<path style=" stroke:none;fill-rule:nonzero;fill:rgb(100%,100%,100%);fill-opacity:1;" d="M 216.214844 27.847656 L 209.039063 35.460938 C 211.648438 38.941406 213.171875 42.855469 213.171875 46.988281 C 213.171875 48.292969 212.953125 49.816406 212.734375 51.121094 C 211.863281 54.601563 209.90625 57.863281 207.296875 60.691406 C 204.46875 63.519531 200.773438 65.914063 196.640625 67.871094 C 194.898438 68.742188 192.941406 69.175781 190.765625 69.828125 C 187.285156 70.699219 183.589844 71.132813 179.671875 71.132813 C 174.886719 71.132813 170.320313 70.480469 166.1875 69.175781 C 160.53125 67.4375 155.746094 64.609375 152.265625 61.128906 C 150.960938 59.820313 149.871094 58.515625 149.003906 56.996094 C 147.914063 55.253906 147.042969 53.296875 146.609375 51.339844 C 146.175781 50.035156 146.175781 48.511719 146.175781 47.207031 C 146.175781 45.246094 146.390625 43.507813 147.042969 41.769531 L 138.5625 33.285156 C 135.515625 37.851563 133.773438 43.074219 133.773438 48.511719 C 133.773438 49.816406 133.992188 51.339844 134.210938 52.644531 C 134.644531 55.90625 135.949219 59.171875 137.691406 61.996094 C 138.5625 63.519531 139.648438 64.824219 140.734375 66.347656 C 143.78125 69.828125 147.480469 73.089844 152.046875 75.699219 C 159.878906 80.050781 169.449219 82.660156 180.105469 82.660156 C 187.503906 82.660156 194.464844 81.355469 200.773438 79.183594 C 202.730469 78.527344 204.46875 77.660156 206.210938 76.789063 C 210.125 74.832031 213.824219 72.222656 216.652344 69.394531 C 221.652344 64.609375 224.917969 58.953125 226.003906 52.644531 C 226.222656 51.339844 226.4375 49.816406 226.4375 48.511719 C 225.351563 40.464844 222.089844 33.503906 216.214844 27.847656 "/>
<path style=" stroke:none;fill-rule:nonzero;fill:rgb(3.898621%,40.39917%,69.799805%);fill-opacity:1;" d="M 187.722656 59.605469 L 196.203125 67.652344 C 200.554688 65.914063 204.253906 63.519531 207.078125 60.691406 L 195.550781 49.597656 L 191.851563 45.902344 L 200.773438 36.546875 L 205.558594 31.546875 L 212.519531 24.367188 L 218.824219 17.839844 L 246.886719 44.8125 L 243.1875 48.730469 L 220.132813 72.65625 C 217.738281 75.917969 214.476563 78.964844 210.777344 81.574219 L 220.132813 90.710938 L 264.503906 44.597656 L 218.390625 0.222656 L 200.988281 18.277344 L 194.027344 25.453125 L 187.71875 32.195313 L 174.015625 46.554688 L 187.722656 59.605469 "/>
<path style=" stroke:none;fill-rule:nonzero;fill:rgb(59.999084%,59.999084%,60.398865%);fill-opacity:1;" d="M 148.785156 56.996094 L 149.003906 57.429688 C 149.652344 58.515625 150.523438 59.386719 151.394531 60.476563 L 165.097656 54.167969 L 133.558594 24.585938 L 132.6875 29.152344 L 157.484375 53.730469 L 148.785156 56.996094 "/>
<path style=" stroke:none;fill-rule:nonzero;fill:rgb(59.999084%,59.999084%,60.398865%);fill-opacity:1;" d="M 225.351563 48.292969 C 225.351563 49.597656 225.132813 51.121094 224.917969 52.425781 C 223.828125 58.734375 220.566406 64.390625 215.5625 69.175781 C 212.519531 72.003906 209.039063 74.394531 205.121094 76.570313 C 203.382813 77.441406 201.640625 78.3125 199.683594 78.964844 C 193.59375 81.355469 186.414063 82.445313 179.019531 82.445313 C 168.359375 82.445313 158.789063 79.835938 150.960938 75.484375 C 146.390625 72.875 142.695313 69.828125 139.648438 66.132813 C 138.5625 64.824219 137.472656 63.300781 136.601563 61.78125 C 134.863281 58.734375 133.773438 55.6875 133.121094 52.425781 C 132.90625 51.121094 132.6875 49.597656 132.6875 48.292969 C 132.6875 47.859375 132.6875 47.425781 132.6875 46.988281 C 132.46875 48.292969 132.6875 55.253906 132.6875 56.777344 C 132.6875 58.953125 132.90625 61.128906 133.558594 63.300781 C 133.992188 65.042969 134.644531 66.566406 135.296875 68.089844 C 137.257813 72.003906 139.867188 75.484375 143.347656 78.746094 C 151.828125 86.140625 164.445313 90.929688 178.800781 90.929688 C 188.589844 90.929688 197.726563 88.535156 205.339844 84.835938 C 207.078125 83.96875 208.601563 82.878906 210.125 82.007813 C 213.824219 79.398438 217.085938 76.570313 219.480469 73.089844 C 222.960938 68.304688 224.917969 62.867188 224.917969 56.996094 C 224.917969 55.6875 224.917969 49.816406 224.917969 47.640625 C 225.351563 46.769531 225.351563 47.859375 225.351563 48.292969 "/>
<path style=" stroke:none;fill-rule:nonzero;fill:rgb(0.799561%,0.799561%,0.799561%);fill-opacity:1;" d="M 101.582031 104.195313 L 133.121094 104.195313 L 130.078125 116.378906 L 114.851563 116.378906 L 113.328125 122.6875 L 129.207031 122.6875 L 126.378906 133.996094 L 110.71875 133.996094 L 107.019531 150.09375 L 90.707031 150.09375 L 101.582031 104.195313 "/>
<path style=" stroke:none;fill-rule:nonzero;fill:rgb(0.799561%,0.799561%,0.799561%);fill-opacity:1;" d="M 137.472656 104.195313 L 153.785156 104.195313 L 143.128906 150.09375 L 126.816406 150.09375 L 137.472656 104.195313 "/>
<path style=" stroke:none;fill-rule:nonzero;fill:rgb(0.799561%,0.799561%,0.799561%);fill-opacity:1;" d="M 170.101563 126.164063 C 175.320313 126.164063 179.019531 123.121094 179.019531 118.769531 C 179.019531 116.378906 177.277344 115.289063 174.015625 115.289063 C 173.148438 115.289063 172.492188 115.289063 171.40625 115.507813 L 169.015625 126.164063 C 169.230469 126.164063 169.449219 126.164063 170.101563 126.164063 Z M 157.921875 104.632813 L 159.007813 104.414063 C 164.226563 103.761719 170.753906 103.324219 174.453125 103.324219 C 180.542969 103.324219 185.109375 103.980469 188.589844 105.503906 C 193.160156 107.460938 195.769531 111.375 195.769531 116.378906 C 195.769531 120.511719 194.246094 124.644531 191.636719 127.6875 C 189.242188 130.300781 187.285156 131.605469 182.933594 132.910156 L 181.847656 133.34375 C 182.28125 133.777344 182.5 133.777344 182.71875 133.996094 C 184.023438 135.519531 187.722656 142.914063 190.984375 150.3125 L 172.929688 150.3125 C 170.535156 143.785156 169.882813 142.046875 166.839844 134.648438 L 163.140625 150.3125 L 147.261719 150.3125 L 157.921875 104.632813 "/>
<path style=" stroke:none;fill-rule:nonzero;fill:rgb(0.799561%,0.799561%,0.799561%);fill-opacity:1;" d="M 234.488281 104.195313 L 274.074219 104.195313 L 271.246094 117.464844 L 259.503906 117.464844 L 251.671875 150.09375 L 235.355469 150.09375 L 243.1875 117.464844 L 230.355469 117.464844 L 234.488281 104.195313 "/>
<path style=" stroke:none;fill-rule:nonzero;fill:rgb(0.799561%,0.799561%,0.799561%);fill-opacity:1;" d="M 259.285156 145.742188 C 259.71875 145.742188 259.9375 145.523438 259.9375 145.308594 C 259.9375 145.089844 259.71875 144.871094 259.503906 144.871094 C 259.503906 144.871094 259.503906 144.871094 259.285156 144.871094 L 259.285156 145.742188 C 259.066406 145.742188 259.066406 145.742188 259.285156 145.742188 Z M 257.761719 143.785156 C 257.980469 143.785156 257.980469 143.785156 258.414063 143.785156 C 258.851563 143.785156 259.066406 143.785156 259.066406 143.785156 C 260.371094 143.785156 261.023438 144.21875 261.023438 145.308594 C 261.023438 145.960938 260.808594 146.179688 260.15625 146.394531 C 260.371094 146.613281 260.808594 147.265625 261.242188 147.917969 L 259.71875 147.917969 C 259.503906 147.265625 259.285156 147.265625 258.851563 146.613281 L 258.851563 147.917969 L 257.546875 147.917969 L 257.546875 143.785156 Z M 259.285156 149.441406 C 261.242188 149.441406 262.765625 147.917969 262.765625 145.960938 C 262.765625 144.003906 261.242188 142.480469 259.285156 142.480469 C 257.328125 142.480469 255.804688 144.003906 255.804688 145.960938 C 255.804688 147.917969 257.328125 149.441406 259.285156 149.441406 Z M 259.285156 141.828125 C 261.460938 141.828125 263.199219 143.566406 263.199219 145.742188 C 263.199219 147.917969 261.460938 149.65625 259.285156 149.65625 C 257.109375 149.65625 255.367188 147.917969 255.367188 145.742188 C 255.367188 143.566406 257.109375 141.828125 259.285156 141.828125 "/>
<path style=" stroke:none;fill-rule:nonzero;fill:rgb(0.799561%,0.799561%,0.799561%);fill-opacity:1;" d="M 192.507813 149.007813 C 197.074219 150.3125 202.078125 151.179688 206.863281 151.179688 C 213.171875 151.179688 218.171875 149.65625 222.304688 146.613281 C 226.875 143.351563 229.921875 138.128906 229.921875 133.5625 C 229.921875 130.515625 228.613281 127.6875 226.222656 125.730469 C 224.265625 124.207031 222.304688 123.121094 218.390625 121.164063 L 215.128906 119.640625 C 214.039063 118.988281 213.605469 118.554688 213.605469 117.898438 C 213.605469 116.160156 215.78125 115.074219 218.609375 115.074219 C 220.785156 115.074219 223.175781 115.726563 228.179688 117.246094 L 231.441406 104.847656 C 227.742188 103.761719 224.265625 103.324219 220.785156 103.324219 C 207.515625 103.324219 197.289063 110.503906 197.289063 120.074219 C 197.289063 125.078125 200.554688 128.558594 208.820313 132.472656 C 212.734375 134.214844 213.386719 134.648438 213.386719 135.953125 C 213.386719 137.910156 211.429688 139 208.167969 139 C 205.339844 139 201.425781 138.128906 196.421875 136.171875 L 192.507813 149.007813 "/>
</g>
</svg>
